<?xml version="1.0" encoding="UTF-8"?><svg id="Layer_2" xmlns="http://www.w3.org/2000/svg" viewBox="0 0 195.57 192.98"><defs><style>.cls-1{fill:#fff;stroke-width:0px;}</style></defs><g id="Layer_1-2"><path class="cls-1" d="m28.57,28.43C47.76,9.48,70.83,0,97.77,0c27.05,0,50.11,9.48,69.17,28.43,19.09,18.83,28.63,41.54,28.63,68.14s-9.53,49.32-28.6,68.15c-19.06,18.84-42.12,28.26-69.17,28.26s-50-9.42-69.18-28.26C9.54,145.89,0,123.17,0,96.57S9.52,47.26,28.57,28.43Zm90.6,11.47h-5c-8.34,0-14.62.57-18.84,1.71-5.71,1.49-9.76,4.46-12.15,8.9-1.49,2.63-2.29,6.86-2.4,12.68-.23,9.13-.4,14.32-.52,15.58h-12.46v20.71h13v59.76h25.68c.08.01.16-.04.17-.13,0-.01,0-.03,0-.04v-36.47c0-9.13.17-16.83.52-23.12l16.95-.17c.45-3.08.85-6.33,1.2-9.76.34-3.33.57-6.87.68-10.61.01-.08-.04-.16-.13-.17-.01,0-.03,0-.04,0h-7.53c-2.06.11-3.54.17-4.46.17-2.41.05-4.81-.13-7.19-.52.12-.73.18-1.48.17-2.22,0-.8,0-2-.17-3.6s-.17-2.79-.17-3.59c-.03-1.21.08-2.42.34-3.6.15-1.06.56-2.06,1.2-2.91,1.01-.37,2.04-.65,3.09-.86,1.25-.12,2.5-.18,3.76-.17.91,0,2.28.06,4.11.17h6.85c.08.01.16-.04.17-.13,0-.01,0-.03,0-.04v-21.4l-6.83-.17Z"/></g></svg>