<?xml version="1.0" encoding="UTF-8"?><svg id="Layer_2" xmlns="http://www.w3.org/2000/svg" viewBox="0 0 192.16 189.6"><defs><style>.cls-1{fill:#fff;stroke-width:0px;}</style></defs><g id="Layer_1-2"><path class="cls-1" d="m131.76,58.43c-4.24-3.75-9.76-5.82-15.48-5.62-5.42-.3-7.1-.3-20.8-.3s-15.38,0-20.8.3c-5.72-.2-11.24,1.77-15.48,5.62-3.75,4.24-5.82,9.76-5.62,15.48-.3,5.42-.3,7-.3,20.8s0,15.38.3,20.8c-.2,5.72,1.77,11.24,5.62,15.48,4.24,3.75,9.76,5.82,15.48,5.62,5.42.3,7.1.3,20.8.3s15.38,0,20.8-.3c5.72.2,11.24-1.77,15.48-5.62,3.75-4.24,5.82-9.76,5.62-15.48.3-5.42.3-7.1.3-20.8s0-15.38-.3-20.8c.2-5.72-1.77-11.24-5.62-15.48Zm-69.88,8.77c0-3.43,2.78-6.21,6.21-6.21s6.21,2.78,6.21,6.21-2.78,6.21-6.21,6.21-6.21-2.78-6.21-6.21Zm33.81,54.01c-14.69,0-26.51-11.93-26.51-26.51s11.83-26.51,26.51-26.51,26.51,11.83,26.51,26.51-11.83,26.51-26.51,26.51Z"/><path class="cls-1" d="m164.08,27.91C145.35,9.3,122.68,0,96.08,0c-26.49,0-49.16,9.31-68,27.91C9.47,46.42.11,68.73,0,94.86c.12,26.03,9.48,48.3,28.08,66.83,18.85,18.61,41.52,27.91,68,27.91s49.27-9.3,68-27.91c18.72-18.52,28.08-40.78,28.08-66.78s-9.36-48.5-28.08-67Zm-17.04,88.08c.1,8.08-2.86,15.87-8.38,21.68-5.91,5.52-13.7,8.48-21.68,8.38-5.52.3-7.29.3-21.29.3s-15.77,0-21.29-.3c-8.08.1-15.87-2.86-21.68-8.38-5.52-5.91-8.48-13.7-8.38-21.68-.29-5.51-.3-7.29-.3-21.19v-.1c0-13.9,0-15.69.3-21.19-.1-8.08,2.86-15.87,8.28-21.68,5.91-5.52,13.7-8.48,21.68-8.38,5.52-.3,7.29-.3,21.29-.3s15.77,0,21.29.3c7.98-.1,15.77,2.86,21.78,8.28,5.52,5.91,8.48,13.7,8.38,21.68.3,5.52.3,7.29.3,21.29s0,15.77-.3,21.29Z"/><circle class="cls-1" cx="95.69" cy="94.7" r="17.15" transform="translate(-13.93 16.55) rotate(-9.22)"/></g></svg>