<?xml version="1.0" encoding="UTF-8"?><svg id="Layer_2" xmlns="http://www.w3.org/2000/svg" viewBox="0 0 191.6 189.04"><defs><style>.cls-1{fill:#fff;stroke-width:0px;}</style></defs><g id="Layer_1-2"><path class="cls-1" d="m28.08,27.74C46.8,9.25,69.4,0,95.88,0s49.08,9.25,67.81,27.74c18.61,18.38,27.91,40.64,27.91,66.78s-9.3,48.26-27.91,66.78c-18.73,18.49-41.33,27.74-67.81,27.74s-49.08-9.25-67.8-27.74C9.36,142.8,0,120.54,0,94.52S9.36,46.12,28.08,27.74Zm134.75,69.52c0-19.63-1.54-31.9-4.62-36.82-2.74-4.56-14.5-7.3-35.27-8.21-8.11-.35-15.3-.52-21.58-.52-3.76,0-7.19.06-10.27.17-2,.12-5.48.17-10.27.17s-8.45.06-11,.18c-11.48.58-17.97,1.04-19.48,1.37-9.59,2.39-14.39,16.73-14.38,43,0,20.1,1.88,32.43,5.65,37,3.19,4,12.15,6.28,26.88,6.85,12.33.45,23.51.67,33.56.68,8.45,0,16.09-.17,22.94-.51,15.18-.67,23.85-1.41,26-2.23,7.9-3.11,11.85-16.82,11.84-41.13Zm-42.29-2.4c-4,2.29-9.67,5.31-17,9.08-8.22,4.22-13.87,7.19-16.95,8.9l.17-.86c0-4.33-.17-15.92-.51-34.76,3.76,1.83,9.47,4.8,17.12,8.91,7.49,3.88,13.21,6.79,17.17,8.73Z"/></g></svg>