<svg id="Layer_1" data-name="Layer 1" xmlns="http://www.w3.org/2000/svg" viewBox="0 0 208.4 208.84"><defs><style>.cls-1{fill:#231f20;}</style></defs><path class="cls-1" d="M35,36.36Q63.79,7.94,104.2,7.93q40.58,0,69.17,28.43Q202,64.6,202,104.5t-28.6,68.15q-28.59,28.26-69.17,28.26-40.41,0-69.18-28.26Q6.43,144.4,6.43,104.5T35,36.36ZM125.6,47.83h-5q-12.51,0-18.84,1.71-8.56,2.24-12.15,8.9-2.24,3.95-2.4,12.68-.34,13.69-.52,15.58H74.23v20.71h13v59.76h25.68a.15.15,0,0,0,.17-.17V130.53q0-13.69.52-23.12l16.95-.17q.68-4.62,1.2-9.76.51-5,.68-10.61a.15.15,0,0,0-.17-.17h-7.53c-2.06.11-3.54.17-4.46.17a39.71,39.71,0,0,1-7.19-.52,12.83,12.83,0,0,0,.17-2.22c0-.8,0-2-.17-3.6s-.17-2.79-.17-3.59a15.28,15.28,0,0,1,.34-3.6,6.3,6.3,0,0,1,1.2-2.91,20.45,20.45,0,0,1,3.09-.86,35.87,35.87,0,0,1,3.76-.17c.91,0,2.28.06,4.11.17h6.85a.15.15,0,0,0,.17-.17V48Z"/></svg>