<?xml version="1.0" encoding="UTF-8"?><svg id="Layer_2" xmlns="http://www.w3.org/2000/svg" viewBox="0 0 192.98 192.98"><defs><style>.cls-1{fill:#fff;stroke-width:0px;}</style></defs><g id="Layer_1-2"><circle class="cls-1" cx="95.74" cy="76.83" r="18.48"/><path class="cls-1" d="m96.49,0C43.2,0,0,43.2,0,96.49s43.2,96.49,96.49,96.49,96.49-43.2,96.49-96.49S149.78,0,96.49,0t0,0Zm20,130.63c-3.85,6.8-12.42,15.08-16.56,31.64,0,2.29-1.86,4.14-4.14,4.14-2.28,0-4.14-1.85-4.14-4.14-4.14-16.56-12.71-24.84-16.56-31.64s-26.9-25.13-26.9-53.8c0-34.6,32.82-47,47.6-47s47.6,12.41,47.6,47c-.05,28.67-23.1,47-26.95,53.8h.05Z"/></g></svg>