<svg id="Layer_1" data-name="Layer 1" xmlns="http://www.w3.org/2000/svg" viewBox="0 0 208.4 208.84"><defs><style>.cls-1{fill:#231f20;}</style></defs><path class="cls-1" d="M36.22,37.55q28.26-27.9,68-27.91,39.9,0,68,27.91,28.08,27.75,28.08,67,0,39-28.08,66.78-28.1,27.91-68,27.91-39.72,0-68-27.91Q8.32,143.54,8.14,104.5,8.31,65.31,36.22,37.55Zm132.87,51q-.85-16.1-.85-20.55V66.49q-3.09-16.95-20.21-19h-17.8q-5.83,0-27.23-.35Q94.62,47,87.76,47q-6.67,0-11.81.17V78.48c-2.4-.23-4-.34-4.8-.34l-.34-31H67.56a.7.7,0,0,0-.17.52V78.48c-2.4-.23-4-.34-4.8-.34-.34,0-.51,0-.51.17q-.34-21.24-.34-27.91V48.17a4.4,4.4,0,0,0-1.55.34,5.59,5.59,0,0,1-1.37.35v.85q0,5.31-.51,28.77c-2.28-.23-3.77-.34-4.45-.34-.34,0-.51,0-.51.17V52.11q-10.8,5.66-10.79,29.45c0,2.28,0,4.62.17,7H82.45q-.17.18,4.29-3.08,9.41-7,19-7,9.08,0,18.49,6.16,5.31,3.6,5.31,3.94Zm-20.54,85.27q18.82-2.57,20.37-22.09c.23-3.53.35-8.22.35-14q0-6.5-.18-14.89-.34-11.82-.34-20,0-6,.17-10.1-21.4.16-30.47.17l-5.83-.17q5.48,10.62,5.48,19.69a26.35,26.35,0,0,1-.51,5.14q-2.57,14.73-16.1,22.09a31.19,31.19,0,0,1-15.06,4.11A31.8,31.8,0,0,1,91.87,140q-14.55-7.2-17.63-22.26a27.34,27.34,0,0,1-.52-5.48q0-8.89,5.48-19.52-9.76-.34-18.83-.34t-17.47.34q-.16,5.13-.17,29.79,0,26.71.17,29.8,1.37,15.06,17.29,20.54,2.75,1,24.49,1Zm-42-87.32c-1.15,0-2.4,0-3.77.17q-12,1.36-18.32,12.15a24.42,24.42,0,0,0-3.6,11v1.37a24.8,24.8,0,0,0,24.83,25,21,21,0,0,0,2.74-.17q20.37-1.71,22.09-22.09a21.57,21.57,0,0,0,.17-2.57,25.1,25.1,0,0,0-4.28-14Q119.1,86.53,106.6,86.53ZM87.76,111.87V110.5q.69-14.9,15.07-17.13a20.91,20.91,0,0,1,3.6-.34,17.09,17.09,0,0,1,11.47,4.28A17.55,17.55,0,0,1,124.23,110v1.37q0,11.66-11,16.44a20.35,20.35,0,0,1-8.22,1.88q-6.51,0-12-5.3A16.74,16.74,0,0,1,87.76,111.87Zm68.49-33.39c-.68.68-3.94,1-9.76,1q-8.38,0-9.41-1.2-.69-.86-.69-9.93c0-5.83.34-9,1-9.59.34-.35,3-.57,8-.69h2.23q7.71,0,8.73,1c.69.68,1,4,1,9.93Q157.45,77.28,156.25,78.48Z"/></svg>