<svg id="Layer_1" data-name="Layer 1" xmlns="http://www.w3.org/2000/svg" viewBox="0 0 208.4 208.84"><defs><style>.cls-1{fill:#231f20;}</style></defs><circle class="cls-1" cx="103.45" cy="84.76" r="18.48"/><path class="cls-1" d="M104.2,7.93a96.49,96.49,0,1,0,96.49,96.49A96.49,96.49,0,0,0,104.2,7.93Zm20,130.63c-3.85,6.8-12.42,15.08-16.56,31.64a4.14,4.14,0,0,1-8.28,0c-4.14-16.56-12.71-24.84-16.56-31.64s-26.9-25.13-26.9-53.8c0-34.6,32.82-47,47.6-47s47.6,12.41,47.6,47C151.05,113.43,128,131.76,124.15,138.56Z"/></svg>