<svg id="Layer_1" data-name="Layer 1" xmlns="http://www.w3.org/2000/svg" viewBox="0 0 208.4 208.84"><defs><style>.cls-1{fill:#231f20;}</style></defs><path class="cls-1" d="M36.48,37.64Q64.56,9.9,104.28,9.9t67.81,27.74Q200,65.21,200,104.42q0,39-27.91,66.78Q144,198.94,104.28,198.94T36.48,171.2Q8.4,143.45,8.4,104.42,8.4,65.21,36.48,37.64Zm134.75,69.52q0-29.44-4.62-36.82-4.11-6.84-35.27-8.21-12.16-.52-21.58-.52c-3.76,0-7.19.06-10.27.17-2,.12-5.48.17-10.27.17s-8.45.06-11,.18Q61,63,58.74,63.5q-14.39,3.59-14.38,43,0,30.15,5.65,37,4.79,6,26.88,6.85,18.49.67,33.56.68,12.67,0,22.94-.51,22.77-1,26-2.23Q171.24,143.63,171.23,107.16Zm-42.29-2.4q-6,3.43-17,9.08-12.33,6.33-16.95,8.9l.17-.86q0-6.5-.51-34.76,5.64,2.75,17.12,8.91Q123,101.85,128.94,104.76Z"/></svg>